<svg width="216" height="115" viewBox="0 0 216 115" fill="none" xmlns="http://www.w3.org/2000/svg">
<path d="M63.8737 37.9095L78.69 52.2375C80.6656 54.1502 83.1862 55.3532 85.8769 55.6676C88.5677 55.9821 91.2848 55.3912 93.6242 53.9828L153.125 18.2644L145.815 9.01012C143.914 6.61158 141.244 4.99453 138.289 4.45114C135.334 3.90774 132.288 4.47382 129.702 6.04712L112.253 16.6409L88.6724 8.52305L82.1878 11.4049C81.7027 11.6196 81.2777 11.957 80.952 12.386C80.6263 12.815 80.4105 13.3217 80.3244 13.8596C80.2382 14.3974 80.2846 14.9489 80.4591 15.4634C80.6337 15.9778 80.9308 16.4386 81.3232 16.8032L93.3884 28.0058L82.3843 34.5001L71.3801 29.6294L64.7777 32.5518C64.2973 32.7649 63.876 33.0983 63.5518 33.522C63.2277 33.9456 63.0109 34.446 62.9212 34.9779C62.8314 35.5098 62.8715 36.0565 63.0379 36.5684C63.2042 37.0802 63.4915 37.5412 63.8737 37.9095V37.9095Z" stroke="white" stroke-width="8.35135" stroke-linecap="round" stroke-linejoin="round"/>
<path d="M10.296 106.75V80.5682H21.2136C23.1738 80.5682 24.8145 80.8452 26.1355 81.3991C27.465 81.9531 28.4622 82.7287 29.127 83.7259C29.8002 84.723 30.1369 85.8778 30.1369 87.1903C30.1369 88.1875 29.9281 89.0781 29.5105 89.8622C29.0929 90.6378 28.5176 91.2812 27.7846 91.7926C27.0517 92.304 26.2037 92.6619 25.2406 92.8665V93.1222C26.2974 93.1733 27.2733 93.4588 28.1681 93.9787C29.0716 94.4986 29.796 95.223 30.3414 96.152C30.8869 97.0724 31.1596 98.1634 31.1596 99.4247C31.1596 100.831 30.8017 102.088 30.0858 103.196C29.3699 104.295 28.3343 105.165 26.9792 105.804C25.6241 106.435 23.9792 106.75 22.0446 106.75H10.296ZM16.6241 101.649H20.536C21.9082 101.649 22.9181 101.389 23.5659 100.869C24.2221 100.349 24.5502 99.625 24.5502 98.696C24.5502 98.0227 24.3926 97.4432 24.0772 96.9574C23.7619 96.4631 23.3145 96.0838 22.7349 95.8196C22.1554 95.5469 21.4608 95.4105 20.6511 95.4105H16.6241V101.649ZM16.6241 91.3324H20.127C20.8173 91.3324 21.4309 91.2173 21.9679 90.9872C22.5048 90.7571 22.9224 90.4247 23.2207 89.9901C23.5275 89.5554 23.6809 89.0312 23.6809 88.4176C23.6809 87.5398 23.3699 86.8494 22.7477 86.3466C22.1255 85.8438 21.286 85.5923 20.2292 85.5923H16.6241V91.3324ZM43.3684 107.121C41.3059 107.121 39.5332 106.699 38.0502 105.855C36.5758 105.003 35.438 103.818 34.6369 102.301C33.8443 100.776 33.448 99.0071 33.448 96.9957C33.448 94.9759 33.8443 93.2074 34.6369 91.6903C35.438 90.1648 36.5758 88.9801 38.0502 88.1364C39.5332 87.2841 41.3059 86.858 43.3684 86.858C45.4309 86.858 47.1994 87.2841 48.6738 88.1364C50.1568 88.9801 51.2946 90.1648 52.0872 91.6903C52.8883 93.2074 53.2889 94.9759 53.2889 96.9957C53.2889 99.0071 52.8883 100.776 52.0872 102.301C51.2946 103.818 50.1568 105.003 48.6738 105.855C47.1994 106.699 45.4309 107.121 43.3684 107.121ZM43.4068 102.403C44.1568 102.403 44.7917 102.173 45.3116 101.713C45.8315 101.253 46.2278 100.614 46.5005 99.7955C46.7818 98.9773 46.9224 98.0312 46.9224 96.9574C46.9224 95.8665 46.7818 94.9119 46.5005 94.0938C46.2278 93.2756 45.8315 92.6364 45.3116 92.1761C44.7917 91.7159 44.1568 91.4858 43.4068 91.4858C42.6312 91.4858 41.975 91.7159 41.438 92.1761C40.9096 92.6364 40.5048 93.2756 40.2235 94.0938C39.9508 94.9119 39.8145 95.8665 39.8145 96.9574C39.8145 98.0312 39.9508 98.9773 40.2235 99.7955C40.5048 100.614 40.9096 101.253 41.438 101.713C41.975 102.173 42.6312 102.403 43.4068 102.403ZM65.6575 107.121C63.595 107.121 61.8223 106.699 60.3393 105.855C58.8649 105.003 57.7271 103.818 56.926 102.301C56.1333 100.776 55.737 99.0071 55.737 96.9957C55.737 94.9759 56.1333 93.2074 56.926 91.6903C57.7271 90.1648 58.8649 88.9801 60.3393 88.1364C61.8223 87.2841 63.595 86.858 65.6575 86.858C67.72 86.858 69.4885 87.2841 70.9629 88.1364C72.4458 88.9801 73.5836 90.1648 74.3762 91.6903C75.1774 93.2074 75.5779 94.9759 75.5779 96.9957C75.5779 99.0071 75.1774 100.776 74.3762 102.301C73.5836 103.818 72.4458 105.003 70.9629 105.855C69.4885 106.699 67.72 107.121 65.6575 107.121ZM65.6958 102.403C66.4458 102.403 67.0808 102.173 67.6007 101.713C68.1206 101.253 68.5169 100.614 68.7896 99.7955C69.0708 98.9773 69.2115 98.0312 69.2115 96.9574C69.2115 95.8665 69.0708 94.9119 68.7896 94.0938C68.5169 93.2756 68.1206 92.6364 67.6007 92.1761C67.0808 91.7159 66.4458 91.4858 65.6958 91.4858C64.9203 91.4858 64.264 91.7159 63.7271 92.1761C63.1987 92.6364 62.7939 93.2756 62.5126 94.0938C62.2399 94.9119 62.1035 95.8665 62.1035 96.9574C62.1035 98.0312 62.2399 98.9773 62.5126 99.7955C62.7939 100.614 63.1987 101.253 63.7271 101.713C64.264 102.173 64.9203 102.403 65.6958 102.403ZM84.4181 101.598L84.4437 94.1449H85.313L90.8358 87.1136H97.9181L89.7108 97.1875H88.0616L84.4181 101.598ZM78.7804 106.75V80.5682H85.0318V106.75H78.7804ZM90.9764 106.75L85.8372 98.5938L89.9537 94.1577L98.1994 106.75H90.9764ZM107.89 106.75V80.5682H125.762V85.7074H114.218V91.0767H124.624V96.2287H114.218V106.75H107.89ZM135.2 80.5682V106.75H128.948V80.5682H135.2ZM139.179 106.75V87.1136H145.43V106.75H139.179ZM142.311 84.8253C141.433 84.8253 140.679 84.5355 140.048 83.956C139.417 83.3679 139.102 82.6605 139.102 81.8338C139.102 81.0156 139.417 80.3168 140.048 79.7372C140.679 79.1491 141.433 78.8551 142.311 78.8551C143.197 78.8551 143.952 79.1491 144.574 79.7372C145.204 80.3168 145.52 81.0156 145.52 81.8338C145.52 82.6605 145.204 83.3679 144.574 83.956C143.952 84.5355 143.197 84.8253 142.311 84.8253ZM158.563 114.523C156.696 114.523 155.098 114.263 153.769 113.743C152.439 113.223 151.395 112.511 150.637 111.608C149.878 110.705 149.422 109.682 149.269 108.54L155.188 108.207C155.298 108.608 155.503 108.957 155.801 109.256C156.108 109.554 156.504 109.784 156.99 109.946C157.485 110.108 158.064 110.189 158.729 110.189C159.777 110.189 160.642 109.933 161.324 109.422C162.014 108.919 162.36 108.037 162.36 106.776V103.324H162.142C161.895 103.929 161.52 104.47 161.017 104.947C160.514 105.425 159.888 105.8 159.138 106.072C158.396 106.345 157.544 106.482 156.581 106.482C155.149 106.482 153.837 106.149 152.644 105.484C151.459 104.811 150.509 103.771 149.793 102.365C149.085 100.95 148.732 99.1307 148.732 96.9062C148.732 94.6136 149.098 92.7259 149.831 91.2429C150.564 89.7514 151.523 88.6477 152.708 87.9318C153.901 87.2159 155.183 86.858 156.556 86.858C157.587 86.858 158.469 87.0369 159.202 87.3949C159.943 87.7443 160.553 88.196 161.03 88.75C161.507 89.304 161.869 89.8793 162.117 90.4759H162.296V87.1136H168.521V106.827C168.521 108.489 168.104 109.891 167.269 111.033C166.433 112.175 165.266 113.04 163.766 113.628C162.266 114.224 160.531 114.523 158.563 114.523ZM158.754 101.93C159.513 101.93 160.161 101.73 160.698 101.33C161.235 100.929 161.648 100.354 161.938 99.6037C162.227 98.8537 162.372 97.9545 162.372 96.9062C162.372 95.8409 162.227 94.9247 161.938 94.1577C161.656 93.3821 161.243 92.7855 160.698 92.3679C160.161 91.9503 159.513 91.7415 158.754 91.7415C157.979 91.7415 157.323 91.9545 156.786 92.3807C156.249 92.8068 155.84 93.4077 155.558 94.1832C155.286 94.9503 155.149 95.858 155.149 96.9062C155.149 97.9545 155.29 98.8537 155.571 99.6037C155.852 100.354 156.257 100.929 156.786 101.33C157.323 101.73 157.979 101.93 158.754 101.93ZM178.758 95.5511V106.75H172.507V80.5682H178.554V90.7188H178.771C179.214 89.5085 179.939 88.5625 180.944 87.8807C181.959 87.1989 183.199 86.858 184.665 86.858C186.045 86.858 187.247 87.1648 188.27 87.7784C189.292 88.3835 190.085 89.2401 190.648 90.348C191.219 91.456 191.5 92.7514 191.491 94.2344V106.75H185.24V95.4616C185.248 94.3707 184.976 93.5185 184.422 92.9048C183.868 92.2912 183.088 91.9844 182.082 91.9844C181.426 91.9844 180.846 92.1293 180.344 92.419C179.849 92.7003 179.461 93.1051 179.18 93.6335C178.907 94.1619 178.767 94.8011 178.758 95.5511ZM206.477 87.1136V91.7159H194.09V87.1136H206.477ZM196.685 82.4091H202.936V100.575C202.936 100.959 202.996 101.27 203.115 101.509C203.243 101.739 203.426 101.905 203.665 102.007C203.904 102.101 204.189 102.148 204.521 102.148C204.76 102.148 205.012 102.126 205.276 102.084C205.548 102.033 205.753 101.99 205.889 101.956L206.835 106.469C206.537 106.554 206.115 106.661 205.57 106.788C205.033 106.916 204.389 106.997 203.639 107.031C202.173 107.099 200.916 106.929 199.868 106.52C198.828 106.102 198.031 105.455 197.477 104.577C196.932 103.699 196.668 102.595 196.685 101.266V82.4091Z" fill="white"/>
</svg>
